<?xml version="1.0" encoding="iso-8859-1"?>
<!-- Generator: Adobe Illustrator 23.0.3, SVG Export Plug-In . SVG Version: 6.00 Build 0)  -->
<svg version="1.1" id="Layer_1" xmlns="http://www.w3.org/2000/svg" xmlns:xlink="http://www.w3.org/1999/xlink" x="0px" y="0px"
	 viewBox="0 0 13.992 14" style="enable-background:new 0 0 13.992 14;" xml:space="preserve">
<g>
	<g>
		<defs>
			<rect id="SVGID_1_" width="13.992" height="14"/>
		</defs>
		<clipPath id="SVGID_2_">
			<use xlink:href="#SVGID_1_"  style="overflow:visible;"/>
		</clipPath>
		<path style="clip-path:url(#SVGID_2_);fill-rule:evenodd;clip-rule:evenodd;fill:#FFFFFF;" d="M13.606,11.958l-3.03-3.03
			c-0.016-0.016-0.035-0.027-0.052-0.042c0.596-0.904,0.944-1.987,0.944-3.151C11.469,2.567,8.901,0,5.734,0S0,2.567,0,5.734
			c0,3.167,2.567,5.734,5.734,5.734c1.164,0,2.247-0.348,3.151-0.944c0.015,0.017,0.026,0.036,0.042,0.052l3.03,3.03
			c0.455,0.455,1.193,0.455,1.648,0C14.062,13.151,14.062,12.413,13.606,11.958L13.606,11.958z M5.734,9.481
			c-2.069,0-3.746-1.677-3.746-3.746c0-2.069,1.677-3.747,3.746-3.747s3.746,1.677,3.746,3.747C9.481,7.804,7.803,9.481,5.734,9.481
			L5.734,9.481z M5.734,9.481"/>
	</g>
</g>
</svg>
